<?xml version="1.0" encoding="UTF-8" standalone="no"?>
<!-- Created with Inkscape (http://www.inkscape.org/) -->

<svg
   xmlns:dc="http://purl.org/dc/elements/1.1/"
   xmlns:cc="http://creativecommons.org/ns#"
   xmlns:rdf="http://www.w3.org/1999/02/22-rdf-syntax-ns#"
   xmlns:svg="http://www.w3.org/2000/svg"
   xmlns="http://www.w3.org/2000/svg"
   xmlns:sodipodi="http://sodipodi.sourceforge.net/DTD/sodipodi-0.dtd"
   xmlns:inkscape="http://www.inkscape.org/namespaces/inkscape"
   width="92.885239mm"
   height="192.39897mm"
   viewBox="0 0 92.885238 192.39897"
   version="1.1"
   id="svg8"
   inkscape:version="0.92.3 (2405546, 2018-03-11)"
   sodipodi:docname="11ª Divisione di Cavalleria Corazzata Lubuska.svg"
   inkscape:export-filename="C:\Users\Io\Desktop\11ª Divisione di Cavalleria Corazzata Lubuska.png"
   inkscape:export-xdpi="95"
   inkscape:export-ydpi="95">
  <defs
     id="defs2" />
  <sodipodi:namedview
     id="base"
     pagecolor="#ffffff"
     bordercolor="#666666"
     borderopacity="1.0"
     inkscape:pageopacity="0.0"
     inkscape:pageshadow="2"
     inkscape:zoom="0.35355339"
     inkscape:cx="590.22924"
     inkscape:cy="340.35771"
     inkscape:document-units="mm"
     inkscape:current-layer="layer1"
     showgrid="false"
     inkscape:object-paths="true"
     inkscape:window-width="1366"
     inkscape:window-height="705"
     inkscape:window-x="-8"
     inkscape:window-y="-8"
     inkscape:window-maximized="1"
     inkscape:object-nodes="true"
     inkscape:snap-smooth-nodes="false"
     inkscape:snap-intersection-paths="false"
     inkscape:snap-nodes="true"
     inkscape:snap-center="true"
     fit-margin-top="0"
     fit-margin-left="0"
     fit-margin-right="0"
     fit-margin-bottom="0" />
  <metadata
     id="metadata5">
    <rdf:RDF>
      <cc:Work
         rdf:about="">
        <dc:format>image/svg+xml</dc:format>
        <dc:type
           rdf:resource="http://purl.org/dc/dcmitype/StillImage" />
        <dc:title></dc:title>
      </cc:Work>
    </rdf:RDF>
  </metadata>
  <g
     inkscape:label="Livello 1"
     inkscape:groupmode="layer"
     id="layer1"
     transform="translate(261.37254,-19.98803)">
    <circle
       r="46.442619"
       cy="165.94438"
       cx="-214.92992"
       id="circle1275"
       style="fill:#ffffff;fill-opacity:1;stroke:none;stroke-width:2.95568442;stroke-linecap:butt;stroke-linejoin:miter;stroke-miterlimit:4;stroke-dasharray:none;stroke-opacity:1;paint-order:fill markers stroke"
       inkscape:transform-center-y="-14.202911" />
    <circle
       style="fill:#ef7f1b;fill-opacity:1;stroke:#000000;stroke-width:2.71162987;stroke-linecap:butt;stroke-linejoin:miter;stroke-miterlimit:4;stroke-dasharray:none;stroke-opacity:1;paint-order:fill markers stroke"
       id="path1269"
       cx="-214.92992"
       cy="165.94438"
       r="42.607796"
       inkscape:transform-center-y="-14.202911" />
    <g
       id="g1291"
       transform="matrix(1,0,0,0.92236686,-7.8577275,14.718245)">
      <path
         inkscape:transform-center-y="-86.732956"
         inkscape:transform-center-x="-0.033636298"
         style="opacity:1;vector-effect:none;fill:#000000;fill-opacity:1;fill-rule:evenodd;stroke:#ffffff;stroke-width:1.4407506;stroke-linecap:butt;stroke-linejoin:miter;stroke-miterlimit:4;stroke-dasharray:none;stroke-dashoffset:0;stroke-opacity:1"
         d="m -200.03788,171.07328 -1.19015,-2.149 V 73.303189 c 0,-31.377951 -29.74792,-26.895386 -29.74792,-26.895386 L -234.8575,6.4824717 c 0,0 20.7236,-1.7467943 23.16864,15.7759573 l 3.11549,-15.5722051 c 0,0 22.2732,1.6569698 16.03706,23.9252931 l 10.76471,-13.750445 c 0,0 12.86339,11.868646 1.74926,25.816683 l 9.4886,-7.086925 c 0,0 9.26123,18.283237 -5.45464,28.735829 l 9.92097,-3.090466 c 0,0 4.38236,13.233784 -6.0211,20.520137 l 7.31778,-1.070003 c 0,0 1.52459,13.099827 -7.14331,17.143483 l 6.71108,-0.430782 c 0,0 -1.16137,13.590482 -7.25313,14.023812 l 4.80038,-0.15542 c 0,0 0.3249,13.69381 -8.33044,13.77073 l 7.18131,-0.0539 c 0,0 -1.20025,11.16352 -5.95532,11.1866 l 3.2179,-0.0156 c 0,0 0.86704,10.77412 -5.5908,10.77412 h 3.94117 c 0,0 -0.58641,10.57342 -6.20517,10.54221 h 4.10885 c 0,0 0.16863,11.2447 -5.16651,11.2447 l 3.29353,-3e-5 c 0,0 -0.007,10.51389 -10.83314,10.51389 l -1.92425,-2e-5 z"
         id="path874"
         inkscape:connector-curvature="0"
         sodipodi:nodetypes="ccsccccccccccccccccccccccccccccc" />
      <path
         inkscape:transform-center-y="-152.30448"
         inkscape:transform-center-x="12.893513"
         style="opacity:1;vector-effect:none;fill:none;fill-opacity:1;fill-rule:evenodd;stroke:#ffffff;stroke-width:1.4407506;stroke-linecap:butt;stroke-linejoin:miter;stroke-miterlimit:4;stroke-dasharray:none;stroke-dashoffset:0;stroke-opacity:1"
         d="m -208.57337,6.6862239 -8.23254,41.1488411"
         id="path876"
         inkscape:connector-curvature="0" />
      <path
         inkscape:transform-center-y="-145.10957"
         inkscape:transform-center-x="-4.2504574"
         style="opacity:1;vector-effect:none;fill:none;fill-opacity:1;fill-rule:evenodd;stroke:#ffffff;stroke-width:1.4407506;stroke-linecap:butt;stroke-linejoin:miter;stroke-miterlimit:4;stroke-dasharray:none;stroke-dashoffset:0;stroke-opacity:1"
         d="m -181.7716,16.861072 -27.54814,35.188969"
         id="path878"
         inkscape:connector-curvature="0" />
      <path
         inkscape:transform-center-y="-112.85055"
         inkscape:transform-center-x="-16.142077"
         style="opacity:1;vector-effect:none;fill:none;fill-opacity:1;fill-rule:evenodd;stroke:#ffffff;stroke-width:1.4407506;stroke-linecap:butt;stroke-linejoin:miter;stroke-miterlimit:4;stroke-dasharray:none;stroke-dashoffset:0;stroke-opacity:1"
         d="m -166.06741,61.236193 -35.17328,10.956776"
         id="path882"
         inkscape:connector-curvature="0" />
      <path
         inkscape:transform-center-y="-96.213411"
         inkscape:transform-center-x="-16.796747"
         style="opacity:1;vector-effect:none;fill:none;fill-opacity:1;fill-rule:evenodd;stroke:#ffffff;stroke-width:1.4407506;stroke-linecap:butt;stroke-linejoin:miter;stroke-miterlimit:4;stroke-dasharray:none;stroke-dashoffset:0;stroke-opacity:1"
         d="m -164.77073,80.686327 -36.4573,5.330777"
         id="path884"
         inkscape:connector-curvature="0" />
      <path
         inkscape:transform-center-y="-81.009874"
         inkscape:transform-center-x="-16.580632"
         sodipodi:nodetypes="cc"
         style="opacity:1;vector-effect:none;fill:none;fill-opacity:1;fill-rule:evenodd;stroke:#ffffff;stroke-width:1.4407506;stroke-linecap:butt;stroke-linejoin:miter;stroke-miterlimit:4;stroke-dasharray:none;stroke-dashoffset:0;stroke-opacity:1"
         d="m -165.20296,97.399028 -36.02507,2.312447"
         id="path886"
         inkscape:connector-curvature="0" />
      <path
         inkscape:transform-center-y="-67.702916"
         inkscape:transform-center-x="-15.354257"
         sodipodi:nodetypes="cc"
         style="opacity:1;vector-effect:none;fill:none;fill-opacity:1;fill-rule:evenodd;stroke:#ffffff;stroke-width:1.4407506;stroke-linecap:butt;stroke-linejoin:miter;stroke-miterlimit:4;stroke-dasharray:none;stroke-dashoffset:0;stroke-opacity:1"
         d="m -167.65571,111.26742 -33.57232,1.18958"
         id="path888"
         inkscape:connector-curvature="0" />
      <path
         inkscape:transform-center-y="-54.436771"
         inkscape:transform-center-x="-14.779692"
         sodipodi:nodetypes="cc"
         style="opacity:1;vector-effect:none;fill:none;fill-opacity:1;fill-rule:evenodd;stroke:#ffffff;stroke-width:1.4407506;stroke-linecap:butt;stroke-linejoin:miter;stroke-miterlimit:4;stroke-dasharray:none;stroke-dashoffset:0;stroke-opacity:1"
         d="m -168.80484,124.98428 -32.42319,0.28815"
         id="path890"
         inkscape:connector-curvature="0" />
      <path
         inkscape:transform-center-y="-43.337866"
         inkscape:transform-center-x="-13.410982"
         style="opacity:1;vector-effect:none;fill:none;fill-opacity:1;fill-rule:evenodd;stroke:#ffffff;stroke-width:1.4407506;stroke-linecap:butt;stroke-linejoin:miter;stroke-miterlimit:4;stroke-dasharray:none;stroke-dashoffset:0;stroke-opacity:1"
         d="m -171.54226,136.15522 -29.68577,0.14408"
         id="path892"
         inkscape:connector-curvature="0" />
      <path
         inkscape:transform-center-y="-32.635786"
         inkscape:transform-center-x="-12.586167"
         style="opacity:1;vector-effect:none;fill:none;fill-opacity:1;fill-rule:evenodd;stroke:#ffffff;stroke-width:1.4407506;stroke-linecap:butt;stroke-linejoin:miter;stroke-miterlimit:4;stroke-dasharray:none;stroke-dashoffset:0;stroke-opacity:1"
         d="m -173.19189,146.92934 h -28.03614"
         id="path894"
         inkscape:connector-curvature="0"
         sodipodi:nodetypes="cc" />
      <path
         inkscape:transform-center-y="-22.093576"
         inkscape:transform-center-x="-11.538007"
         style="opacity:1;vector-effect:none;fill:none;fill-opacity:1;fill-rule:evenodd;stroke:#ffffff;stroke-width:1.4407506;stroke-linecap:butt;stroke-linejoin:miter;stroke-miterlimit:4;stroke-dasharray:none;stroke-dashoffset:0;stroke-opacity:1"
         d="m -175.28821,157.47155 h -25.93982"
         id="path896"
         inkscape:connector-curvature="0"
         sodipodi:nodetypes="cc" />
      <path
         inkscape:transform-center-y="-10.848886"
         inkscape:transform-center-x="-10.601517"
         sodipodi:nodetypes="cc"
         style="opacity:1;vector-effect:none;fill:none;fill-opacity:1;fill-rule:evenodd;stroke:#ffffff;stroke-width:1.4407506;stroke-linecap:butt;stroke-linejoin:miter;stroke-miterlimit:4;stroke-dasharray:none;stroke-dashoffset:0;stroke-opacity:1"
         d="m -177.16119,168.71624 h -24.06684"
         id="path898"
         inkscape:connector-curvature="0" />
      <path
         inkscape:transform-center-y="-131.65919"
         inkscape:transform-center-x="-12.773822"
         style="opacity:1;vector-effect:none;fill:none;fill-opacity:1;fill-rule:evenodd;stroke:#ffffff;stroke-width:1.4407506;stroke-linecap:butt;stroke-linejoin:miter;stroke-miterlimit:4;stroke-dasharray:none;stroke-dashoffset:0;stroke-opacity:1"
         d="m -170.53374,35.59083 -32.97713,24.630219"
         id="path880"
         inkscape:connector-curvature="0" />
      <path
         inkscape:transform-center-y="-65.168539"
         inkscape:transform-center-x="17.926928"
         sodipodi:nodetypes="cccsccccccsc"
         inkscape:connector-curvature="0"
         id="path1239"
         d="m -226.39593,49.572422 c -1.50788,-0.04879 -2.60188,0.10667 -4.30587,0.275777 l 0.4266,4.300868 c 12.31651,-1.22263 16.62033,3.436513 19.08932,8.548818 2.469,5.112305 2.08797,10.685192 2.08797,10.685192 l -0.007,0.08442 v 96.955093 h 4.32226 V 73.551916 c 0.0352,-0.463271 0.44479,-6.61255 -2.51119,-12.733196 -2.68726,-5.564269 -8.54711,-10.904771 -19.10233,-11.246298 z"
         style="color:#000000;font-style:normal;font-variant:normal;font-weight:normal;font-stretch:normal;font-size:medium;line-height:normal;font-family:sans-serif;font-variant-ligatures:normal;font-variant-position:normal;font-variant-caps:normal;font-variant-numeric:normal;font-variant-alternates:normal;font-feature-settings:normal;text-indent:0;text-align:start;text-decoration:none;text-decoration-line:none;text-decoration-style:solid;text-decoration-color:#000000;letter-spacing:normal;word-spacing:normal;text-transform:none;writing-mode:lr-tb;direction:ltr;text-orientation:mixed;dominant-baseline:auto;baseline-shift:baseline;text-anchor:start;white-space:normal;shape-padding:0;clip-rule:nonzero;display:inline;overflow:visible;visibility:visible;opacity:1;isolation:auto;mix-blend-mode:normal;color-interpolation:sRGB;color-interpolation-filters:linearRGB;solid-color:#000000;solid-opacity:1;vector-effect:none;fill:#000000;fill-opacity:1;fill-rule:evenodd;stroke:#ffffff;stroke-width:1.44075072;stroke-linecap:butt;stroke-linejoin:miter;stroke-miterlimit:4;stroke-dasharray:none;stroke-dashoffset:0;stroke-opacity:1;color-rendering:auto;image-rendering:auto;shape-rendering:auto;text-rendering:auto;enable-background:accumulate" />
    </g>
    <path
       style="opacity:1;vector-effect:none;fill:#000000;fill-opacity:1;fill-rule:evenodd;stroke:#ffffff;stroke-width:1.32291663;stroke-linecap:butt;stroke-linejoin:miter;stroke-miterlimit:4;stroke-dasharray:none;stroke-dashoffset:0;stroke-opacity:1"
       d="m -215.85031,150.14896 c -0.2122,-0.004 -0.38027,-0.002 -0.49712,5.2e-4 -0.1247,0.003 -0.19121,0.008 -0.19121,0.008 0,0 -0.26621,-0.0175 -0.73173,-0.007 -3.25716,0.0716 -16.28065,1.30325 -16.29307,19.61309 l -12.96488,1.2e-4 c -0.26902,1.2e-4 -0.70462,0.83536 -0.70457,1.37288 -4e-5,0.53751 0.43519,1.37376 0.9727,1.374 h 27.58928 c 0,4.61351 -4.68772,3.11019 -4.68772,3.11019 0,12.7 6.68073,12.96458 6.68073,12.96458 0,0 6.68073,-0.26458 6.68073,-12.96458 0,0 -4.68873,1.50332 -4.68873,-3.11019 h 6.79029 c 0,0 2.79698,10.85813 6.2186,14.48675 2.2257,2.36035 8.46666,3.04271 8.46666,3.04271 -6.97805,-12.08635 -6.31686,-19.91222 -6.30452,-20.05097 h 0.001 c 0,-0.007 -5.1e-4,-0.0137 -5.1e-4,-0.0207 0,-5e-5 5.1e-4,-0.005 5.1e-4,-0.005 h -5.1e-4 c -0.0125,-18.39213 -13.15296,-19.75377 -16.33596,-19.81378 z"
       id="path1350"
       inkscape:connector-curvature="0"
       sodipodi:nodetypes="ccccccccccccccscccscccc" />
    <path
       sodipodi:nodetypes="cccccccc"
       inkscape:connector-curvature="0"
       id="path1364"
       d="m -244.62244,176.66054 v -8.18431 h 3.10799 v 8.044 l 2.29652,-0.37418 c 0,0 -1.30962,6.96905 2.61924,12.62849 0,0 -9.63974,-2.57247 -10.20101,-12.16077 z"
       style="opacity:1;vector-effect:none;fill:#000000;fill-opacity:1;fill-rule:evenodd;stroke:#ffffff;stroke-width:1.32291663;stroke-linecap:butt;stroke-linejoin:miter;stroke-miterlimit:4;stroke-dasharray:none;stroke-dashoffset:0;stroke-opacity:1" />
    <path
       style="color:#000000;font-style:normal;font-variant:normal;font-weight:normal;font-stretch:normal;font-size:medium;line-height:normal;font-family:sans-serif;font-variant-ligatures:normal;font-variant-position:normal;font-variant-caps:normal;font-variant-numeric:normal;font-variant-alternates:normal;font-feature-settings:normal;text-indent:0;text-align:start;text-decoration:none;text-decoration-line:none;text-decoration-style:solid;text-decoration-color:#000000;letter-spacing:normal;word-spacing:normal;text-transform:none;writing-mode:lr-tb;direction:ltr;text-orientation:mixed;dominant-baseline:auto;baseline-shift:baseline;text-anchor:start;white-space:normal;shape-padding:0;clip-rule:nonzero;display:inline;overflow:visible;visibility:visible;opacity:1;isolation:auto;mix-blend-mode:normal;color-interpolation:sRGB;color-interpolation-filters:linearRGB;solid-color:#000000;solid-opacity:1;vector-effect:none;fill:#ffffff;fill-opacity:1;fill-rule:evenodd;stroke:none;stroke-width:5;stroke-linecap:butt;stroke-linejoin:miter;stroke-miterlimit:4;stroke-dasharray:none;stroke-dashoffset:0;stroke-opacity:1;color-rendering:auto;image-rendering:auto;shape-rendering:auto;text-rendering:auto;enable-background:accumulate"
       d="m 162.30712,550.2207 c -1.59375,-0.0386 -2.7207,0.12696 -2.7207,0.12696 0,0 -4.41777,1.23785 2.83008,5.12695 0,0 6.28258,2.46178 2.75195,8.10351 h -51.27392 v 5.00586 H 170.639 c 0.16076,-0.53576 0.42012,-1.03227 0.56055,-1.57617 0.0794,-0.30753 0.14974,-0.6184 0.22461,-0.92773 h 0.008 c 4.6404,-13.7886 -4.34219,-15.85938 -9.12485,-15.85938 z"
       transform="matrix(0.26458333,0,0,0.26458333,-263.6969,19.98803)"
       id="path1388"
       inkscape:connector-curvature="0"
       sodipodi:nodetypes="ccccccccccsc" />
    <path
       style="opacity:1;vector-effect:none;fill:none;fill-opacity:1;fill-rule:evenodd;stroke:#ffffff;stroke-width:1.32291663;stroke-linecap:butt;stroke-linejoin:miter;stroke-miterlimit:4;stroke-dasharray:none;stroke-dashoffset:0;stroke-opacity:1"
       d="m -205.03086,181.10491 c 0,0 3.6658,2.05978 8.41707,2.05978"
       id="path1368"
       inkscape:connector-curvature="0" />
    <path
       style="opacity:1;vector-effect:none;fill:none;fill-opacity:1;fill-rule:evenodd;stroke:#ffffff;stroke-width:1.32291663;stroke-linecap:butt;stroke-linejoin:miter;stroke-miterlimit:4;stroke-dasharray:none;stroke-dashoffset:0;stroke-opacity:1"
       d="m -207.16088,175.07944 c 0,0 3.29776,2.30531 8.60353,2.30531"
       id="path1370"
       inkscape:connector-curvature="0" />
    <path
       style="opacity:1;vector-effect:none;fill:#ffffff;fill-opacity:1;fill-rule:evenodd;stroke:none;stroke-width:0.99999994px;stroke-linecap:butt;stroke-linejoin:miter;stroke-miterlimit:4;stroke-dasharray:none;stroke-dashoffset:0;stroke-opacity:1"
       d="m 193.2368,550.2207 c -4.78126,0.11577 -13.7654,2.07078 -9.125,15.85938 h 0.008 c 0.0765,0.3088 0.14713,0.62007 0.22656,0.92773 0.14045,0.54396 0.39977,1.04035 0.56055,1.57617 h 57.6675 v -5.00586 h -52.19875 c -3.52958,-5.64119 2.75195,-8.10351 2.75195,-8.10351 7.24785,-3.8891 2.83008,-5.12695 2.83008,-5.12695 0,0 -1.12695,-0.16555 -2.7207,-0.12696 z"
       transform="matrix(0.26458333,0,0,0.26458333,-263.6969,19.98803)"
       id="path1376"
       inkscape:connector-curvature="0"
       sodipodi:nodetypes="scccccccccs" />
  </g>
</svg>
