<?xml version="1.0" encoding="UTF-8" standalone="no"?>
<!-- Created with Inkscape (http://www.inkscape.org/) -->

<svg
   xmlns:dc="http://purl.org/dc/elements/1.1/"
   xmlns:cc="http://creativecommons.org/ns#"
   xmlns:rdf="http://www.w3.org/1999/02/22-rdf-syntax-ns#"
   xmlns:svg="http://www.w3.org/2000/svg"
   xmlns="http://www.w3.org/2000/svg"
   version="1.1"
   width="591.0625"
   height="372.0625"
   id="svg2">
  <defs
     id="defs4">
    <linearGradient
       id="linearGradient3777">
      <stop
         id="stop3779"
         style="stop-color:#b35800;stop-opacity:1"
         offset="0" />
    </linearGradient>
  </defs>
  <metadata
     id="metadata7">
    <rdf:RDF>
      <cc:Work
         rdf:about="">
        <dc:format>image/svg+xml</dc:format>
        <dc:type
           rdf:resource="http://purl.org/dc/dcmitype/StillImage" />
        <dc:title></dc:title>
      </cc:Work>
    </rdf:RDF>
  </metadata>
  <path
     d="m 525.31752,148.01898 a 229.79967,121.00817 0 1 1 -459.599316,0 229.79967,121.00817 0 1 1 459.599316,0 z"
     id="path3879"
     style="fill:none;stroke:#000000;stroke-width:8;stroke-linecap:round;stroke-linejoin:miter;stroke-miterlimit:4;stroke-opacity:1;stroke-dasharray:none" />
  <path
     d="M 585.90976,366.37406 4.2663332,3.7357361"
     id="path3881"
     style="fill:none;stroke:#000000;stroke-width:8;stroke-linecap:butt;stroke-linejoin:miter;stroke-miterlimit:4;stroke-opacity:1;stroke-dasharray:none" />
  <path
     d="M 584.7946,6.0174311 5.6411055,365.7946"
     id="path3883"
     style="fill:none;stroke:#000000;stroke-width:8;stroke-linecap:butt;stroke-linejoin:miter;stroke-miterlimit:4;stroke-opacity:1;stroke-dasharray:none" />
  <path
     d="m 53.00921,3.51027 0,363.53791"
     id="path3885"
     style="fill:none;stroke:#000000;stroke-width:8;stroke-linecap:butt;stroke-linejoin:miter;stroke-miterlimit:4;stroke-opacity:1;stroke-dasharray:none" />
  <rect
     width="583.06555"
     height="364.06042"
     x="3.9850845"
     y="3.9887695"
     id="rect3859"
     style="fill:none;stroke:#0b04fb;stroke-width:8;stroke-linecap:round;stroke-linejoin:miter;stroke-miterlimit:4;stroke-opacity:1;stroke-dasharray:none" />
  <g
     transform="translate(2.1400903,0)"
     id="g3790">
    <path
       d="m 349.34937,322.58035 a 32.176918,32.176918 0 1 1 -64.35383,0 32.176918,32.176918 0 1 1 64.35383,0 z"
       transform="matrix(1.134536,0,0,1.134536,-66.465817,-48.265756)"
       id="path2995"
       style="fill:none;stroke:#000000;stroke-width:8;stroke-linecap:round;stroke-linejoin:miter;stroke-miterlimit:4;stroke-opacity:1;stroke-dasharray:none" />
    <path
       d="m 349.34937,322.58035 a 32.176918,32.176918 0 1 1 -64.35383,0 32.176918,32.176918 0 1 1 64.35383,0 z"
       transform="matrix(1.134536,0,0,1.134536,58.185957,-48.265756)"
       id="path2995-1"
       style="fill:none;stroke:#000000;stroke-width:8;stroke-linecap:round;stroke-linejoin:miter;stroke-miterlimit:4;stroke-opacity:1;stroke-dasharray:none" />
    <path
       d="m 349.34937,322.58035 a 32.176918,32.176918 0 1 1 -64.35383,0 32.176918,32.176918 0 1 1 64.35383,0 z"
       transform="matrix(1.134536,0,0,1.134536,-191.11755,-48.265756)"
       id="path2995-7"
       style="fill:none;stroke:#000000;stroke-width:8;stroke-linecap:round;stroke-linejoin:miter;stroke-miterlimit:4;stroke-opacity:1;stroke-dasharray:none" />
  </g>
</svg>
